#!OML:ASF I:\Actors\actors\Patient Classification 2\Patient 1\Session 1\actor1.ASF
:FULLY-SPECIFIED
:DEGREES
125
root -0.682389 18.7579 5.10152 3.00998 -0.650749 -2.8316
lowerback 4.66943 1.63317 -2.33312
upperback -0.437163 1.98076 -2.03946
thorax -3.07563 1.00749 -0.936077
lowerneck -14.2359 0.717261 2.3351
upperneck 36.8276 -0.609982 2.69087
head 15.292 0.450367 0.621477
rclavicle -4.35338e-014 2.54444e-014
rhumerus 38.0244 72.9696 -24.5647
rradius 107.077
rwrist -8.29183
rhand -1.90949 -46.1721
rfingers 7.12502
rthumb 23.7602 -74.7231
lclavicle -4.35338e-014 2.54444e-014
lhumerus -0.685116 -50.8887 58.004
lradius 79.1854
lwrist 43.786
lhand 0.797462 -26.4207
lfingers 7.12502
lthumb 26.354 1.76811
rfemur 0 0 0
rtibia 0
rfoot 0 0
rtoes 0
lfemur -8.3913 -6.65535 -10.9122
ltibia 22.4621
lfoot -21.9447 15.9085
ltoes -55.3593
126
root -0.679279 18.7578 5.1029 3.00332 -0.961366 -2.86442
lowerback 4.55987 1.71648 -2.21125
upperback -0.356205 2.10397 -2.08051
thorax -2.92473 1.06571 -1.04969
lowerneck -14.3033 0.730956 2.33899
upperneck 36.8049 -0.585081 2.66948
head 15.2965 0.45825 0.615882
rclavicle -6.4605e-015 -6.36111e-015
rhumerus 33.3052 71.2375 -30.6657
rradius 105.946
rwrist -6.41442
rhand -3.60977 -43.4184
rfingers 7.12502
rthumb 22.1287 -72.172
lclavicle -6.4605e-015 -6.36111e-015
lhumerus -0.625445 -50.7817 58.0554
lradius 79.106
lwrist 43.6179
lhand 0.981985 -26.4726
lfingers 7.12502
lthumb 26.5306 1.68959
rfemur 0 0 0
rtibia 0
rfoot 0 0
rtoes 0
lfemur -8.26307 -6.64629 -10.9208
ltibia 22.4296
lfoot -22.0866 16.1368
ltoes -55.2945
127
root -0.675397 18.7577 5.10344 2.99381 -1.19445 -2.89814
lowerback 4.42446 1.7917 -2.1344
upperback -0.289427 2.21538 -2.08021
thorax -2.77673 1.11938 -1.09363
lowerneck -14.265 0.710371 2.21665
upperneck 36.7694 -0.575128 2.67156
head 15.269 0.444767 0.639223
rclavicle -2.84262e-014 1.74931e-014
rhumerus 28.8383 69.1264 -36.2
rradius 104.21
rwrist -4.07282
rhand -5.35916 -44.0608
rfingers 7.12502
rthumb 20.4483 -73.0041
lclavicle -2.84262e-014 1.74931e-014
lhumerus -0.52356 -50.6846 58.1349
lradius 79.0791
lwrist 43.5238
lhand 1.15503 -26.4335
lfingers 7.12502
lthumb 26.6962 1.70353
rfemur 0 0 0
rtibia 0
rfoot 0 0
rtoes 0
lfemur -8.17958 -6.62217 -10.9202
ltibia 22.4314
lfoot -22.2069 16.2839
ltoes -55.1782
128
root -0.672443 18.7579 5.1024 2.99345 -1.31171 -2.87956
lowerback 4.20537 1.85908 -2.15646
upperback -0.178989 2.31514 -2.08612
thorax -2.54036 1.16828 -1.08317
lowerneck -14.1727 0.669845 2.06555
upperneck 36.6365 -0.58599 2.68763
head 15.1814 0.419157 0.668114
rclavicle 1.38155e-014 1.27222e-014
rhumerus 25.1034 66.7159 -40.4676
rradius 102.262
rwrist -2.35602
rhand -6.91749 -42.0488
rfingers 7.12502
rthumb 18.9502 -71.1457
lclavicle 1.38155e-014 1.27222e-014
lhumerus -0.185908 -50.5896 58.0561
lradius 79.0873
lwrist 43.5597
lhand 1.18167 -26.3138
lfingers 7.12502
lthumb 26.7217 1.81934
rfemur 0 0 0
rtibia 0
rfoot 0 0
rtoes 0
lfemur -8.17054 -6.57774 -10.9588
ltibia 22.4604
lfoot -22.2526 16.3418
ltoes -55.1044
129
root -0.670915 18.7579 5.10157 2.99024 -1.31058 -2.86547
lowerback 4.03099 1.90399 -2.2689
upperback -0.0854763 2.37948 -2.05589
thorax -2.35202 1.20089 -0.984468
lowerneck -14.0689 0.623509 1.82722
upperneck 36.4731 -0.608447 2.78718
head 15.0774 0.38803 0.745077
rclavicle 7.15625e-015 2.54444e-014
rhumerus 22.3815 64.6179 -43.0137
rradius 100.498
rwrist -1.41892
rhand -6.06238 -43.1408
rfingers 7.12502
rthumb 19.7724 -72.1552
lclavicle 7.15625e-015 2.54444e-014
lhumerus 0.153855 -50.4616 58.0382
lradius 79.107
lwrist 43.6732
lhand 1.06679 -26.3125
lfingers 7.12502
lthumb 26.6118 1.83737
rfemur 0 0 0
rtibia 0
rfoot 0 0
rtoes 0
lfemur -8.20118 -6.52158 -10.9751
ltibia 22.5008
lfoot -22.2158 16.3204
ltoes -55.1433
130
root -0.669992 18.7575 5.10123 2.97624 -1.19211 -2.87225
lowerback 3.96807 1.91749 -2.40123
upperback -0.0443581 2.39615 -1.99871
thorax -2.28234 1.21051 -0.849536
lowerneck -13.988 0.582114 1.51404
upperneck 36.3778 -0.606676 2.89802
head 15.0115 0.359744 0.84529
rclavicle 4.77083e-015 3.18055e-014
rhumerus 20.5344 63.179 -43.9302
rradius 99.0968
rwrist -1.0531
rhand -5.70351 -43.5121
rfingers 7.12502
rthumb 20.1174 -72.4906
lclavicle 4.77083e-015 3.18055e-014
lhumerus 0.412293 -50.3213 58.1052
lradius 79.1356
lwrist 43.773
lhand 0.817462 -26.5035
lfingers 7.12502
lthumb 26.3731 1.68239
rfemur 0 0 0
rtibia 0
rfoot 0 0
rtoes 0
lfemur -8.24799 -6.45857 -10.955
ltibia 22.5405
lfoot -22.1207 16.2025
ltoes -55.2179
131
root -0.668901 18.7572 5.10234 2.93362 -0.973124 -2.89442
lowerback 3.94016 1.92346 -2.42643
upperback 0.0129577 2.40521 -2.02398
thorax -2.20772 1.21456 -0.859471
lowerneck -14.0141 0.541681 1.30102
upperneck 36.3482 -0.638544 3.00786
head 15.0037 0.332613 0.923669
rclavicle -2.47487e-014 1.11319e-014
rhumerus 19.2657 62.407 -43.6804
rradius 98.1809
rwrist -1.0698
rhand -4.88758 -43.8584
rfingers 7.12502
rthumb 20.9014 -72.7524
lclavicle -2.47487e-014 1.11319e-014
lhumerus 0.929052 -50.2814 57.8581
lradius 79.1388
lwrist 43.8117
lhand 0.670791 -26.6981
lfingers 7.12502
lthumb 26.2327 1.50879
rfemur 0 0 0
rtibia 0
rfoot 0 0
rtoes 0
lfemur -8.28251 -6.39792 -10.9128
ltibia 22.5821
lfoot -21.9745 15.9775
ltoes -55.2814
132
root -0.668635 18.7571 5.10443 2.88766 -0.707506 -2.94648
lowerback 3.91395 1.92812 -2.36591
upperback 0.103953 2.41594 -2.12145
thorax -2.09275 1.21798 -0.9906
lowerneck -14.1067 0.493472 1.18897
upperneck 36.2944 -0.750591 3.21271
head 15.0032 0.298678 1.01064
rclavicle -1.12313e-014 6.36111e-015
rhumerus 18.3903 62.3777 -42.6734
rradius 97.9488
rwrist -1.27982
rhand -4.18741 -45.3399
rfingers 7.12502
rthumb 21.574 -74.1583
lclavicle -1.12313e-014 6.36111e-015
lhumerus 1.71448 -50.2943 57.2836
lradius 79.1616
lwrist 43.8619
lhand 0.72421 -26.6956
lfingers 7.12502
lthumb 26.2839 1.50368
rfemur 0 0 0
rtibia 0
rfoot 0 0
rtoes 0
lfemur -8.32192 -6.35388 -10.8335
ltibia 22.6282
lfoot -21.8331 15.7138
ltoes -55.3139
133
root -0.667944 18.7577 5.10607 2.9116 -0.402364 -3.0064
lowerback 3.86545 1.8935 -2.28192
upperback 0.171783 2.3758 -2.21451
thorax -1.9884 1.1962 -1.12713
lowerneck -14.1685 0.457198 1.06105
upperneck 36.1916 -0.854983 3.46252
head 14.9727 0.27102 1.1191
rclavicle 1.73937e-014 -1.59028e-015
rhumerus 19.8244 63.4452 -38.8251
rradius 98.7543
rwrist -2.53671
rhand -3.13384 -44.9102
rfingers 7.12502
rthumb 22.5855 -73.6089
lclavicle 1.73937e-014 -1.59028e-015
lhumerus 2.3768 -50.216 56.7777
lradius 79.2457
lwrist 43.9168
lhand 0.732583 -26.7421
lfingers 7.12502
lthumb 26.2919 1.45597
rfemur 0 0 0
rtibia 0
rfoot 0 0
rtoes 0
lfemur -8.45738 -6.37869 -10.7385
ltibia 22.678
lfoot -21.7352 15.5009
ltoes -55.3553
